<?xml version="1.0" encoding="utf-8"?>
<!-- Generator: Adobe Illustrator 24.2.1, SVG Export Plug-In . SVG Version: 6.00 Build 0)  -->
<svg version="1.1" id="Layer_1" xmlns="http://www.w3.org/2000/svg" xmlns:xlink="http://www.w3.org/1999/xlink" x="0px" y="0px"
	 viewBox="0 0 1330.9 266.1" style="enable-background:new 0 0 1330.9 266.1;" xml:space="preserve">
<style type="text/css">
	.st0{fill:#E051A3;}
	.st1{fill:#75E0B9;}
	.st2{fill:#FFCC66;}
	.st3{fill:#3F3FA0;}
	.st4{fill:#261A34;}
	.st5{fill:#1C3873;}
	.st6{fill:#75B24A;}
	.st7{fill:#381466;}
	.st8{fill:#E04040;}
</style>
<polygon class="st0" points="79.8,79.8 0,159.6 0,266.1 106.4,266.1 186.2,186.2 79.8,186.2 "/>
<polygon class="st1" points="266.1,0 159.6,0 79.8,79.8 186.2,79.8 186.2,186.2 266.1,106.4 "/>
<polygon class="st2" points="186.2,79.8 186.2,186.2 79.8,186.2 159.6,266.1 266.1,266.1 266.1,159.6 "/>
<polygon class="st3" points="186.2,79.8 106.4,0 0,0 0,106.4 79.8,186.2 79.8,79.8 "/>
<path class="st4" d="M422.1,88.9c-26.1,0-45.8,18.9-45.8,44.4c0,25.1,19.3,44,45.6,44c17.9,0,31.8-8.8,39.9-20.7l23,20.1
	c-13.8,17.8-35.9,30.4-63,30.4c-42.9,0-75.8-32.1-75.8-73.8c0-42.1,33.5-74.2,76.2-74.2c23.8,0,44.6,10.1,58.1,26.1l-21.6,21.6
	C450.7,95.9,437.9,88.9,422.1,88.9z"/>
<path class="st4" d="M605.3,150.9c0,32-24.7,56.1-57.7,56.1s-57.7-24-57.7-56.1s24.6-56.1,57.7-56.1S605.3,118.9,605.3,150.9z
	 M519.1,150.9c0,15.8,12.3,27.7,28.6,27.7s28.5-11.9,28.5-27.7s-12.3-27.7-28.5-27.7S519.1,135.1,519.1,150.9L519.1,150.9z"/>
<path class="st4" d="M723.7,142.7v62.2h-28.8v-60.8c0-13.4-9.2-20.9-21.6-20.9c-9.9,0-19.5,4.5-24.5,11.5V205H620V96.9h28.8v11.7
	c7-9.7,19.7-13.8,32.2-13.8C706.6,94.8,723.7,112.3,723.7,142.7z"/>
<path class="st4" d="M846.7,142.7v62.2h-28.8v-60.8c0-13.4-9.2-20.9-21.6-20.9c-9.9,0-19.5,4.5-24.4,11.5V205h-28.8V96.9h28.8v11.7
	c7-9.7,19.7-13.8,32.2-13.8C829.7,94.8,846.7,112.3,846.7,142.7z"/>
<path class="st4" d="M969.5,158.1h-80.3c3.3,12.7,15,20.3,30.6,20.3c10.3,0,19.1-3.9,29.4-12.9l18.3,21.4
	c-13.8,13.8-28.6,20.1-47,20.1c-34.7,0-59.6-22.8-59.6-56.7c0-32.9,23.2-55.5,54.6-55.5c32.3,0,54.2,23.8,54.2,55.3
	C969.8,153.2,969.5,158.1,969.5,158.1z M891.5,135.5h48.1c-3.9-9.4-12.1-14.8-23.6-14.8S895.8,126.1,891.5,135.5z"/>
<path class="st4" d="M1037.5,124.4c-15.8,0-27.9,11.3-27.9,26.7c0,15.2,11.9,26.3,27.7,26.3c11.1,0,20.6-5.3,25.9-14.4l22.8,19.7
	c-11.1,14.8-29.8,24.2-49.5,24.2c-31.8,0-57.1-24.2-57.1-55.7c0-32,26.1-56.5,57.5-56.5c18.1,0,34.9,8,45.2,21l-21.4,21
	C1055.8,128.9,1047.4,124.4,1037.5,124.4z"/>
<path class="st4" d="M1186.7,191c-10.3,10.3-21,16-36.6,16c-25.7,0-42.3-15.2-42.3-39.2v-43.1h-18.3V96.9h18.3V61.1h28.8v35.7h43.1
	v27.7h-43.1v40.9c0,8.8,5.6,13.1,13.6,13.1c7,0,12.1-3.1,19.1-9.2L1186.7,191z"/>
<path class="st0" d="M1330.9,129.3h-35.1V61.1h-29.2l-68.2,68.2v28.8h68.2v46.8h29.2v-46.8h35.1V129.3z M1234.4,129.3l32.2-32.2
	v32.2H1234.4z"/>
<polygon class="st5" points="133,26.6 79.8,79.8 186.2,79.8 "/>
<polygon class="st6" points="186.2,186.2 239.5,133 186.2,79.8 "/>
<polygon class="st7" points="79.8,79.8 26.6,133 79.8,186.2 "/>
<polygon class="st8" points="79.8,186.2 133,239.5 186.2,186.2 "/>
<rect x="79.8" y="79.8" class="st4" width="106.4" height="106.4"/>
</svg>
