<svg xmlns="http://www.w3.org/2000/svg" xmlns:xlink="http://www.w3.org/1999/xlink" width="231" height="43" viewBox="0 0 184 35">
  <defs>
    <clipPath id="clip-FeelingBetterNowLogo">
      <rect width="184" height="35"/>
    </clipPath>
  </defs>
  <g id="FeelingBetterNowLogo" clip-path="url(#clip-FeelingBetterNowLogo)">
    <g id="Group_63" data-name="Group 63" transform="translate(450.479 2000.475)">
     <g id="Group_63-2" data-name="Group 63" transform="translate(-449.479 -1999.282)">
     <path id="Ellipse_1" data-name="Ellipse 1" d="M172.587,342.9s3.334,16.572-5.247,26.413-22.449,5.35-22.449,5.35-8.69-14.352-.109-24.192S172.587,342.9,172.587,342.9Z" transform="translate(-135.374 -342.673)" fill="#33ca8f"/>
     <path id="Ellipse_1_copy" data-name="Ellipse 1 copy" d="M103.953,417.515s-2.261,11.251,3.558,17.931,15.222,3.632,15.222,3.632,5.893-9.743.074-16.424S103.953,417.515,103.953,417.515Z" transform="translate(-103.521 -406.157)" fill="#dddfe3"/>
     <path id="Path_1" data-name="Path 1" d="M6.88-62.187h7.476v1.463H8.4V-56.3h5.381v1.445H8.4v5.6H6.88ZM19.357-48.97a4.488,4.488,0,0,1-2.365-.632,4.385,4.385,0,0,1-1.634-1.743,5.27,5.27,0,0,1-.587-2.5,5.487,5.487,0,0,1,.551-2.456,4.457,4.457,0,0,1,1.562-1.788,4.16,4.16,0,0,1,2.347-.668,4.425,4.425,0,0,1,2.347.6,4.015,4.015,0,0,1,1.526,1.67,5.379,5.379,0,0,1,.533,2.438,1.8,1.8,0,0,1-.054.469H16.306a3.642,3.642,0,0,0,.506,1.77,2.947,2.947,0,0,0,1.147,1.083,3.113,3.113,0,0,0,1.454.361,3,3,0,0,0,2.727-1.661l1.3.632a4.637,4.637,0,0,1-1.616,1.77A4.492,4.492,0,0,1,19.357-48.97Zm2.654-5.869a2.989,2.989,0,0,0-.325-1.156,2.469,2.469,0,0,0-.912-.975,2.852,2.852,0,0,0-1.562-.4,2.6,2.6,0,0,0-1.833.7,3.344,3.344,0,0,0-.984,1.833Zm7.241,5.869a4.488,4.488,0,0,1-2.365-.632,4.385,4.385,0,0,1-1.634-1.743,5.27,5.27,0,0,1-.587-2.5,5.487,5.487,0,0,1,.551-2.456,4.457,4.457,0,0,1,1.562-1.788,4.16,4.16,0,0,1,2.347-.668,4.425,4.425,0,0,1,2.347.6A4.015,4.015,0,0,1,33-56.481a5.379,5.379,0,0,1,.533,2.438,1.8,1.8,0,0,1-.054.469H26.2a3.642,3.642,0,0,0,.506,1.77,2.947,2.947,0,0,0,1.147,1.083,3.113,3.113,0,0,0,1.454.361,3,3,0,0,0,2.727-1.661l1.3.632a4.637,4.637,0,0,1-1.616,1.77A4.492,4.492,0,0,1,29.253-48.97Zm2.654-5.869a2.989,2.989,0,0,0-.325-1.156,2.469,2.469,0,0,0-.912-.975,2.852,2.852,0,0,0-1.562-.4,2.6,2.6,0,0,0-1.833.7,3.344,3.344,0,0,0-.984,1.833Zm3.052-7.349h1.535v12.929H34.959Zm4.352,2.022a1.06,1.06,0,0,1-.776-.325,1.06,1.06,0,0,1-.325-.776,1.03,1.03,0,0,1,.325-.767,1.075,1.075,0,0,1,.776-.316,1.075,1.075,0,0,1,.776.316,1.03,1.03,0,0,1,.325.767,1.075,1.075,0,0,1-.316.776A1.051,1.051,0,0,1,39.31-60.165Zm-.758,1.7h1.517v9.209H38.552Zm3.575,0H43.59v1.354h.072a3.1,3.1,0,0,1,1.21-1.165,3.489,3.489,0,0,1,1.77-.479,3.25,3.25,0,0,1,2.537.966,3.765,3.765,0,0,1,.876,2.627v5.9H48.52v-5.67a2.454,2.454,0,0,0-.614-1.86,2.352,2.352,0,0,0-1.679-.578,2.242,2.242,0,0,0-1.327.415,2.791,2.791,0,0,0-.912,1.092,3.237,3.237,0,0,0-.325,1.417v5.182H42.127Zm13.723,13.4a4.484,4.484,0,0,1-2.681-.758,3.7,3.7,0,0,1-1.417-1.824l1.39-.6a2.752,2.752,0,0,0,1.02,1.291,2.88,2.88,0,0,0,1.688.5,2.9,2.9,0,0,0,2.212-.831,3.284,3.284,0,0,0,.785-2.347v-1.029h-.072A3.371,3.371,0,0,1,57.5-49.52a3.879,3.879,0,0,1-1.869.442,4.029,4.029,0,0,1-2.176-.614A4.358,4.358,0,0,1,51.9-51.407a5.322,5.322,0,0,1-.578-2.51,5.337,5.337,0,0,1,.578-2.5,4.344,4.344,0,0,1,1.562-1.724,4.029,4.029,0,0,1,2.176-.614,3.879,3.879,0,0,1,1.869.442,3.317,3.317,0,0,1,1.273,1.165h.072v-1.318h1.463v8.848a4.447,4.447,0,0,1-1.228,3.386A4.5,4.5,0,0,1,55.851-45.069Zm0-5.4a2.827,2.827,0,0,0,1.508-.415,2.979,2.979,0,0,0,1.083-1.192,3.923,3.923,0,0,0,.406-1.842,3.965,3.965,0,0,0-.406-1.86,2.914,2.914,0,0,0-1.083-1.183,2.874,2.874,0,0,0-1.508-.406,2.873,2.873,0,0,0-1.517.415,2.957,2.957,0,0,0-1.092,1.192,3.923,3.923,0,0,0-.406,1.842,3.978,3.978,0,0,0,.406,1.851,2.881,2.881,0,0,0,1.092,1.192A2.922,2.922,0,0,0,55.851-50.468ZM66.4-62.187h4.857a4.1,4.1,0,0,1,1.905.451,3.641,3.641,0,0,1,1.4,1.246,3.116,3.116,0,0,1,.524,1.752,2.884,2.884,0,0,1-.479,1.661,3.039,3.039,0,0,1-1.255,1.065v.108a3.325,3.325,0,0,1,1.58,1.138,2.984,2.984,0,0,1,.6,1.86,3.352,3.352,0,0,1-.551,1.9A3.719,3.719,0,0,1,73.5-49.719a4.514,4.514,0,0,1-2.031.46H66.4Zm4.767,5.417a1.875,1.875,0,0,0,1.4-.542,1.727,1.727,0,0,0,.533-1.246,1.726,1.726,0,0,0-.515-1.237,1.786,1.786,0,0,0-1.345-.533H68.418v3.557Zm.307,5.634a1.938,1.938,0,0,0,1.472-.578,1.879,1.879,0,0,0,.551-1.336,1.839,1.839,0,0,0-.569-1.345,2.062,2.062,0,0,0-1.526-.569H68.418v3.828Zm9.787,2.167a4.7,4.7,0,0,1-2.429-.632,4.453,4.453,0,0,1-1.679-1.743,5.142,5.142,0,0,1-.6-2.5,5.225,5.225,0,0,1,.587-2.447,4.615,4.615,0,0,1,1.634-1.8,4.336,4.336,0,0,1,2.384-.668,4.586,4.586,0,0,1,2.411.614,4.02,4.02,0,0,1,1.553,1.679,5.3,5.3,0,0,1,.533,2.4,4.615,4.615,0,0,1-.054.632H78.53a2.8,2.8,0,0,0,.912,1.977,2.769,2.769,0,0,0,1.869.7,2.725,2.725,0,0,0,1.472-.388,2.915,2.915,0,0,0,1-1.056l1.679.795a4.948,4.948,0,0,1-1.7,1.788A4.665,4.665,0,0,1,81.257-48.97Zm2.365-5.977a2.3,2.3,0,0,0-.307-.966,2.2,2.2,0,0,0-.822-.8,2.6,2.6,0,0,0-1.345-.325,2.387,2.387,0,0,0-1.616.569,2.948,2.948,0,0,0-.912,1.526Zm6.97,5.832a3.33,3.33,0,0,1-1.156-.2,2.537,2.537,0,0,1-.885-.524,2.855,2.855,0,0,1-.776-2.113v-4.767H86.168v-1.752h1.607v-2.6h1.986v2.6h3.882v-2.6H95.63v2.6h2.239v1.752H95.63v4.334a1.514,1.514,0,0,0,.289,1.047,1.1,1.1,0,0,0,.939.361,1.654,1.654,0,0,0,.542-.081,2.263,2.263,0,0,0,.506-.262v1.932a3.556,3.556,0,0,1-1.445.271,3.331,3.331,0,0,1-1.156-.2,2.537,2.537,0,0,1-.885-.524,2.855,2.855,0,0,1-.776-2.113v-4.767H89.762v4.334a1.513,1.513,0,0,0,.289,1.047,1.079,1.079,0,0,0,.921.361,1.792,1.792,0,0,0,.957-.307v1.932a2.638,2.638,0,0,1-.587.181A4.3,4.3,0,0,1,90.592-49.114Zm12.658.144a4.7,4.7,0,0,1-2.429-.632,4.453,4.453,0,0,1-1.679-1.743,5.142,5.142,0,0,1-.6-2.5,5.224,5.224,0,0,1,.587-2.447,4.615,4.615,0,0,1,1.634-1.8,4.336,4.336,0,0,1,2.384-.668,4.586,4.586,0,0,1,2.411.614,4.02,4.02,0,0,1,1.553,1.679,5.3,5.3,0,0,1,.533,2.4,4.615,4.615,0,0,1-.054.632h-7.06a2.8,2.8,0,0,0,.912,1.977,2.769,2.769,0,0,0,1.869.7,2.725,2.725,0,0,0,1.472-.388,2.915,2.915,0,0,0,1-1.056l1.679.795a4.948,4.948,0,0,1-1.7,1.788A4.665,4.665,0,0,1,103.25-48.97Zm2.365-5.977a2.3,2.3,0,0,0-.307-.966,2.2,2.2,0,0,0-.822-.8,2.6,2.6,0,0,0-1.345-.325,2.388,2.388,0,0,0-1.616.569,2.948,2.948,0,0,0-.912,1.526Zm3.467-3.521h1.9v1.354h.09a2.562,2.562,0,0,1,1.065-1.165,3.047,3.047,0,0,1,1.607-.46,3.029,3.029,0,0,1,1.12.181V-56.5a4.23,4.23,0,0,0-1.427-.289,2.121,2.121,0,0,0-1.219.361,2.521,2.521,0,0,0-.84.966,2.89,2.89,0,0,0-.307,1.327v4.875h-1.986Zm11.087-3.72h1.878l6.482,10.293h.072l-.072-2.492v-7.8h1.535v12.929h-1.589l-6.789-10.78h-.072l.072,2.492v8.288H120.17ZM136.53-48.97a4.646,4.646,0,0,1-2.438-.65,4.546,4.546,0,0,1-1.688-1.77,5.12,5.12,0,0,1-.6-2.474,5.12,5.12,0,0,1,.6-2.474,4.546,4.546,0,0,1,1.688-1.77,4.646,4.646,0,0,1,2.438-.65,4.646,4.646,0,0,1,2.438.65,4.546,4.546,0,0,1,1.688,1.77,5.12,5.12,0,0,1,.6,2.474,5.12,5.12,0,0,1-.6,2.474,4.546,4.546,0,0,1-1.688,1.77A4.646,4.646,0,0,1,136.53-48.97Zm0-1.39a3.1,3.1,0,0,0,1.58-.424A3.136,3.136,0,0,0,139.283-52a3.761,3.761,0,0,0,.442-1.86,3.761,3.761,0,0,0-.442-1.86,3.136,3.136,0,0,0-1.174-1.219,3.1,3.1,0,0,0-1.58-.424,3.143,3.143,0,0,0-1.589.424,3.116,3.116,0,0,0-1.183,1.219,3.762,3.762,0,0,0-.442,1.86,3.762,3.762,0,0,0,.442,1.86,3.116,3.116,0,0,0,1.183,1.219A3.143,3.143,0,0,0,136.53-50.36Zm4.966-8.108h1.571l2.2,7.277h.018l2.311-7.277h1.589l2.329,7.259h.018l2.185-7.259h1.553l-2.979,9.209H150.74l-2.384-7.349-2.365,7.349h-1.535Z" transform="translate(25.959 73.46)" fill="#151852"/>
      </g>
    </g>
  </g>
</svg>