<svg width="94" height="94" viewBox="0 0 94 94" fill="none" xmlns="http://www.w3.org/2000/svg">
<g clip-path="url(#clip0_716_33)">
<path fill-rule="evenodd" clip-rule="evenodd" d="M2.58231 4.22686C9.03955 48.4251 48.6971 69.8935 90.0975 74.7749C90.8084 74.8601 91.3196 75.5056 91.2344 76.2165C91.1492 76.9274 90.5038 77.4385 89.7929 77.3533C47.2327 72.3375 6.65131 50.0369 0.0138723 4.6003C-0.0909638 3.89266 0.400487 3.23416 1.11141 3.12933C1.81905 3.02449 2.47747 3.51594 2.58231 4.22686Z" fill="#B6B6B6"/>
<path fill-rule="evenodd" clip-rule="evenodd" d="M89.1682 75.9732C87.327 74.6267 84.9977 72.9624 84.7388 72.7659C77.7247 67.4389 71.9128 61.3093 66.7955 54.1182C66.3794 53.535 66.5171 52.7225 67.1002 52.3065C67.6834 51.8904 68.4958 52.0281 68.9119 52.6112C73.8719 59.5861 79.5068 65.5322 86.3113 70.6987C86.7077 71.0001 91.9463 74.7381 92.9488 75.5735C93.3616 75.9143 93.4893 76.2353 93.5122 76.314C93.6498 76.7267 93.568 77.0511 93.4566 77.287C93.3288 77.5523 93.0111 77.9389 92.3952 78.1355C91.7498 78.3386 90.3148 78.4304 89.9544 78.4828C84.5193 79.2887 78.3831 79.7146 72.7973 81.2609C67.4703 82.7352 62.6381 85.2316 59.5389 90.2342C59.1621 90.8436 58.3595 91.0303 57.7501 90.6536C57.1408 90.2768 56.954 89.4742 57.3307 88.8648C60.7969 83.2725 66.1502 80.4058 72.1029 78.7579C77.6559 77.2214 83.7364 76.7562 89.1682 75.9732Z" fill="#B6B6B6"/>
</g>
<defs>
<clipPath id="clip0_716_33">
<rect width="94" height="94" fill="white"/>
</clipPath>
</defs>
</svg>
