<svg width="94" height="88" viewBox="0 0 94 88" fill="none" xmlns="http://www.w3.org/2000/svg">
<path fill-rule="evenodd" clip-rule="evenodd" d="M2.58231 86.7731C9.03956 42.5749 48.6971 21.1065 90.0975 16.2251C90.8084 16.1399 91.3196 15.4944 91.2344 14.7835C91.1492 14.0726 90.5038 13.5615 89.7929 13.6467C47.2327 18.6625 6.65131 40.9631 0.0138702 86.3997C-0.0909653 87.1073 0.40049 87.7658 1.1114 87.8707C1.81905 87.9755 2.47747 87.4841 2.58231 86.7731Z" fill="#B6B6B6"/>
<path fill-rule="evenodd" clip-rule="evenodd" d="M89.1682 15.0268C87.327 16.3733 84.9977 18.0376 84.7388 18.2341C77.7247 23.5611 71.9128 29.6907 66.7955 36.8818C66.3794 37.465 66.5171 38.2775 67.1002 38.6935C67.6834 39.1096 68.4958 38.9719 68.9119 38.3888C73.8719 31.4139 79.5068 25.4678 86.3113 20.3013C86.7077 19.9999 91.9463 16.2619 92.9488 15.4265C93.3616 15.0857 93.4893 14.7647 93.5122 14.6861C93.6498 14.2733 93.568 13.9489 93.4566 13.713C93.3288 13.4477 93.0111 13.0611 92.3952 12.8645C91.7498 12.6614 90.3148 12.5696 89.9544 12.5172C84.5193 11.7113 78.3831 11.2854 72.7973 9.73906C67.4703 8.26481 62.6381 5.76843 59.5389 0.765785C59.1621 0.156425 58.3595 -0.030323 57.7501 0.346432C57.1408 0.723186 56.954 1.52582 57.3307 2.13518C60.7969 7.72753 66.1502 10.5942 72.1029 12.2421C77.6559 13.7786 83.7364 14.2438 89.1682 15.0268Z" fill="#B6B6B6"/>
</svg>
